:SAMPLES-PER-SECOND 30
:FULLY-SPECIFIED
:DEGREES
147
root  -55.0602 34.9481 -26.139 -170.432 33.9171 -179.937
RightUpLeg  -9.61359 -14.1175 -6.24098
RightLeg  17.2229 -6.37502 -1.5313
RightFoot  5.90246 0.0526075 -0.49775
RightToes  -34.2613 -0.174338 -0.279745
Spine  -1.64863 -0.123599 -3.0373
Spine1  -3.35401 -0.259447 -5.4159
HEad  -71.8439 -48.9381 13.562
LeftShoulder1  -1.94126e-019 -3.10601e-018 -2.51263e-017
LeftArm  -22.8619 14.0955 -57.9447
LeftForeArm  33.4693 -16.537 -2.95665
LeftHand  -0.387408 0.875619 9.95101
RightShoulder  -4.96962e-017 0 -2.36833e-017
RightArm  -25.5692 -22.783 80.2968
RightForeArm  60.0115 12.817 1.38113
RightHand  -0.366661 -0.705792 -8.93667
LeftUpLeg  -11.8113 7.46983 -0.919118
LeftLeg  11.7931 20.5054 2.85652
LeftFoot  3.1385 -0.0307918 1.31728
LeftToes  -11.0931 1.46665e-006 1.03344e-007
148
root  -55.08 34.9426 -26.3542 -170.484 34.7025 179.95
RightUpLeg  -9.43522 -13.4898 -6.62232
RightLeg  16.9863 -6.5073 -1.53448
RightFoot  6.18861 0.0561871 -0.548717
RightToes  -34.4133 -0.176508 -0.281823
Spine  -1.69542 -0.363393 -3.20465
Spine1  -3.42706 -0.763048 -5.75189
HEad  -70.0413 -48.6338 12.9564
LeftShoulder1  -1.94126e-019 -3.10601e-018 -2.51263e-017
LeftArm  -23.5657 13.5654 -57.1925
LeftForeArm  33.2972 -16.8622 -3.00379
LeftHand  -0.387134 1.10526 10.4543
RightShoulder  -4.96962e-017 0 -2.36833e-017
RightArm  -27.449 -23.791 80.6335
RightForeArm  61.4707 11.9918 1.46573
RightHand  -0.358284 -0.781261 -9.09053
LeftUpLeg  -10.6868 8.26859 -1.27436
LeftLeg  10.1555 20.5193 2.27632
LeftFoot  3.26099 -0.0332294 1.35301
LeftToes  -10.9457 1.46665e-006 1.03344e-007
149
root  -55.0921 34.9132 -26.5311 -170.464 34.8756 179.931
RightUpLeg  -9.35814 -13.3796 -6.87323
RightLeg  17.1404 -6.5196 -1.55589
RightFoot  6.25976 0.057452 -0.563907
RightToes  -34.8624 -0.178797 -0.2843
Spine  -1.71193 -0.682112 -3.42628
Spine1  -3.42388 -1.43139 -6.18696
HEad  -68.7891 -49.1955 13.5201
LeftShoulder1  -1.94126e-019 -3.10601e-018 -2.51263e-017
LeftArm  -23.1489 13.0397 -56.7985
LeftForeArm  32.4876 -17.7895 -3.14439
LeftHand  -0.380156 1.27389 10.6678
RightShoulder  -4.96962e-017 0 -2.36833e-017
RightArm  -29.2267 -25.0316 81.3347
RightForeArm  61.9567 11.6526 1.49277
RightHand  -0.358159 -0.851154 -9.11751
LeftUpLeg  -10.0948 8.26347 -1.45758
LeftLeg  9.39798 20.7217 2.02718
LeftFoot  3.08476 -0.0301558 1.29111
LeftToes  -10.8751 1.46665e-006 1.03344e-007
150
root  -55.1064 34.878 -26.6728 -170.382 34.6589 179.886
RightUpLeg  -9.51953 -13.4425 -7.09094
RightLeg  17.733 -6.55531 -1.63624
RightFoot  6.12987 0.0580242 -0.559993
RightToes  -35.429 -0.183036 -0.287873
Spine  -1.69018 -0.91957 -3.76936
Spine1  -3.33117 -1.9494 -6.85661
HEad  -68.5962 -50.7556 15.2543
LeftShoulder1  -1.94126e-019 -3.10601e-018 -2.51263e-017
LeftArm  -22.2997 12.1074 -56.8383
LeftForeArm  31.6608 -18.791 -3.27694
LeftHand  -0.385078 1.11055 10.4106
RightShoulder  -4.96962e-017 0 -2.36833e-017
RightArm  -30.8988 -26.6076 82.4965
RightForeArm  61.4272 11.7992 1.48229
RightHand  -0.365258 -0.84733 -9.29246
LeftUpLeg  -10.0003 7.22687 -1.52526
LeftLeg  9.54645 21.0531 2.11193
LeftFoot  2.71827 -0.0237783 1.16377
LeftToes  -10.9488 1.46665e-006 1.03344e-007
151
root  -55.1224 34.847 -26.7755 -170.276 34.1415 179.941
RightUpLeg  -9.85278 -13.818 -7.17671
RightLeg  18.7206 -6.48402 -1.73792
RightFoot  6.08262 0.0597723 -0.557173
RightToes  -36.6233 -0.192087 -0.295264
Spine  -1.61359 -1.09066 -4.20456
Spine1  -3.11832 -2.33628 -7.71038
HEad  -69.3942 -52.3809 17.6725
LeftShoulder1  -1.94126e-019 -3.10601e-018 -2.51263e-017
LeftArm  -20.7532 11.0241 -57.2789
LeftForeArm  30.6942 -20.1351 -3.45155
LeftHand  -0.37175 1.06005 9.93393
RightShoulder  -4.96962e-017 0 -2.36833e-017
RightArm  -33.0924 -28.0306 84.0876
RightForeArm  60.3876 11.9803 1.46961
RightHand  -0.363774 -0.720735 -9.01634
LeftUpLeg  -10.3832 6.71378 -1.54327
LeftLeg  10.3907 21.0251 2.41522
LeftFoot  2.16682 -0.0147943 0.943871
LeftToes  -10.685 1.46665e-006 1.03344e-007
152
root  -55.1273 34.8455 -26.8453 -169.928 33.565 -179.549
RightUpLeg  -10.216 -13.8747 -6.77479
RightLeg  19.6473 -7.02342 -2.0038
RightFoot  6.69984 0.0748531 -0.706506
RightToes  -37.5258 -0.199026 -0.300723
Spine  -1.4828 -1.24418 -4.55658
Spine1  -2.79673 -2.67589 -8.4027
HEad  -70.79 -53.4924 20.0237
LeftShoulder1  -1.94126e-019 -3.10601e-018 -2.51263e-017
LeftArm  -19.3968 10.2505 -58.2329
LeftForeArm  29.5564 -21.8246 -3.68082
LeftHand  -0.355398 0.961229 9.28976
RightShoulder  -4.96962e-017 0 -2.36833e-017
RightArm  -34.8493 -28.686 85.5389
RightForeArm  60.9525 11.6809 1.49206
RightHand  -0.38126 -0.355986 -8.80304
LeftUpLeg  -10.9743 6.59621 -1.16081
LeftLeg  11.5608 20.6289 2.78976
LeftFoot  1.52967 -0.00691148 0.679314
LeftToes  -10.2277 1.46665e-006 1.03344e-007
153
root  -55.1091 34.8887 -26.9122 -169.175 33.0581 -178.367
RightUpLeg  -10.4625 -13.9869 -5.77369
RightLeg  20.0972 -7.18829 -2.11168
RightFoot  8.00058 0.103806 -0.909377
RightToes  -39.8362 -0.217176 -0.314195
Spine  -1.37781 -1.32239 -4.66589
Spine1  -2.55053 -2.84784 -8.61673
HEad  -71.7995 -54.2155 21.2444
LeftShoulder1  -1.94126e-019 -3.10601e-018 -2.51263e-017
LeftArm  -17.9751 10.1652 -59.9141
LeftForeArm  28.5275 -23.6998 -3.95255
LeftHand  -0.352659 0.716391 8.75783
RightShoulder  -4.96962e-017 0 -2.36833e-017
RightArm  -36.0597 -28.8616 86.3544
RightForeArm  62.6585 11.2438 1.51675
RightHand  -0.387114 0.0695278 -8.28121
LeftUpLeg  -11.4864 6.64371 -0.188486
LeftLeg  12.5042 20.2091 3.06737
LeftFoot  0.969555 -0.00246574 0.453012
LeftToes  -9.66641 1.46665e-006 1.03344e-007
154
root  -55.0987 34.9509 -27.0036 -168.312 32.8675 -177.073
RightUpLeg  -10.7101 -14.6899 -4.81255
RightLeg  20.2893 -6.41831 -1.91043
RightFoot  9.62015 0.132082 -0.997713
RightToes  -42.1007 -0.235478 -0.326679
Spine  -1.35125 -1.27742 -4.66769
Spine1  -2.49661 -2.7589 -8.62288
HEad  -72.1313 -54.6407 21.1853
LeftShoulder1  -1.94126e-019 -3.10601e-018 -2.51263e-017
LeftArm  -17.0633 10.7699 -62.2013
LeftForeArm  28.104 -25.2184 -4.16195
LeftHand  -0.370966 0.36156 8.59808
RightShoulder  -4.96962e-017 0 -2.36833e-017
RightArm  -36.4621 -28.8043 86.4569
RightForeArm  63.9056 10.9921 1.52755
RightHand  -0.368941 0.47134 -7.3889
LeftUpLeg  -11.7591 6.57656 0.828781
LeftLeg  12.9936 20.2501 3.24644
LeftFoot  0.550171 -0.00064009 0.294926
LeftToes  -9.15768 1.46665e-006 1.03344e-007
155
root  -55.1064 35.0044 -27.1202 -167.571 33.1109 -176.028
RightUpLeg  -11.0901 -15.4907 -4.23273
RightLeg  20.6114 -5.01787 -1.52656
RightFoot  11.0802 0.141591 -0.895175
RightToes  -44.4466 -0.254943 -0.338838
Spine  -1.37639 -1.11141 -4.70343
Spine1  -2.57463 -2.41707 -8.70414
HEad  -72.3187 -54.5964 20.5637
LeftShoulder1  -1.94126e-019 -3.10601e-018 -2.51263e-017
LeftArm  -16.3588 11.8698 -64.6546
LeftForeArm  28.0109 -26.146 -4.26654
LeftHand  -0.387447 -0.0364209 8.35734
RightShoulder  -4.96962e-017 0 -2.36833e-017
RightArm  -36.2357 -28.654 86.1034
RightForeArm  64.0337 11.2516 1.51672
RightHand  -0.342161 0.907711 -6.42009
LeftUpLeg  -11.7454 6.50976 1.55412
LeftLeg  13.0523 20.7127 3.33851
LeftFoot  0.251287 -5.36266e-005 0.1861
LeftToes  -8.80288 1.46665e-006 1.03344e-007
156
root  -55.1319 35.0378 -27.2567 -167.082 33.7145 -175.261
RightUpLeg  -11.5388 -16.1021 -3.99894
RightLeg  21.2412 -3.54043 -1.12173
RightFoot  12.1269 0.130348 -0.670686
RightToes  -45.9265 -0.267472 -0.346094
Spine  -1.35898 -0.894087 -4.80016
Spine1  -2.58715 -1.95805 -8.90669
HEad  -73.2882 -54.1143 20.6311
LeftShoulder1  -1.94126e-019 -3.10601e-018 -2.51263e-017
LeftArm  -15.8527 13.1827 -67.0074
LeftForeArm  28.2832 -26.2044 -4.20802
LeftHand  -0.369923 -0.265111 7.67822
RightShoulder  -4.96962e-017 0 -2.36833e-017
RightArm  -35.9379 -28.1846 85.4468
RightForeArm  63.2443 11.8354 1.47697
RightHand  -0.335039 1.07133 -6.14344
LeftUpLeg  -11.4161 6.80573 1.96594
LeftLeg  12.8078 21.1233 3.3115
LeftFoot  0.00670638 3.89121e-006 0.0977542
LeftToes  -8.76638 1.46665e-006 1.03344e-007
